<?xml version="1.0" standalone="no"?>
<!DOCTYPE svg PUBLIC "-//W3C//DTD SVG 20010904//EN"
 "http://www.w3.org/TR/2001/REC-SVG-20010904/DTD/svg10.dtd">
<svg version="1.0" xmlns="http://www.w3.org/2000/svg"
 width="600.000000pt" height="600.000000pt" viewBox="0 0 600.000000 600.000000"
 preserveAspectRatio="xMidYMid meet">
<metadata>
Created by potrace 1.11, written by Peter Selinger 2001-2013
</metadata>
<g transform="translate(0.000000,600.000000) scale(0.100000,-0.100000)"
fill="#000000" stroke="none">
<path d="M1220 4354 c-38 -8 -108 -35 -290 -113 -91 -39 -171 -69 -178 -66 -7
3 -11 1 -8 -3 3 -4 -41 -28 -97 -52 -180 -76 -241 -116 -303 -195 -81 -103
-114 -222 -114 -405 0 -189 41 -372 126 -559 185 -406 627 -823 1024 -965 98
-36 154 -46 259 -47 147 -1 263 40 448 162 55 36 97 58 104 53 7 -4 10 -3 6 3
-6 9 310 220 317 212 116 -147 369 -400 492 -492 153 -115 292 -183 451 -221
37 -8 149 -30 248 -47 99 -16 252 -45 340 -64 199 -42 307 -51 406 -35 130 21
261 62 357 113 18 10 38 15 45 11 7 -4 9 -4 5 1 -4 4 29 29 73 56 98 60 241
174 328 263 36 36 69 62 74 59 6 -3 7 -1 3 5 -8 14 43 74 56 65 7 -3 8 -1 4 5
-4 6 15 39 41 74 126 165 227 375 273 563 28 115 38 342 20 464 -39 275 -133
479 -302 657 -85 89 -156 137 -355 239 -86 44 -150 82 -146 88 3 6 1 7 -5 3
-6 -4 -58 18 -116 47 -58 30 -143 65 -188 77 -74 20 -99 22 -233 17 -111 -4
-169 -11 -225 -27 -99 -28 -255 -105 -356 -174 -45 -30 -85 -52 -89 -48 -5 4
-5 2 -1 -5 3 -6 -3 -18 -14 -26 -70 -49 -252 -243 -384 -409 -60 -75 -113
-135 -117 -132 -4 2 -11 -1 -15 -7 -5 -8 -3 -9 6 -4 8 5 11 3 8 -6 -3 -8 -10
-13 -15 -12 -5 1 -10 -4 -10 -11 0 -18 -293 -397 -302 -392 -4 3 -8 0 -8 -7 0
-22 -35 -67 -47 -60 -6 3 -8 3 -4 -2 10 -10 -31 -67 -43 -60 -5 4 -6 -2 -2
-12 10 -29 -7 -8 -77 92 -36 52 -144 208 -240 347 -291 420 -394 555 -530 687
-204 199 -377 288 -575 296 -55 2 -111 1 -125 -1z m3757 -270 c132 -152 210
-313 254 -524 22 -105 17 -385 -9 -490 -43 -177 -133 -380 -242 -549 -71 -109
-148 -206 -164 -206 -6 0 -10 -7 -9 -16 4 -19 -165 -192 -178 -183 -5 3 -8 0
-7 -8 2 -7 -3 -12 -10 -10 -8 1 -11 -2 -8 -7 12 -19 -217 -197 -237 -184 -5 3
-7 1 -4 -4 7 -11 -132 -96 -218 -133 -80 -35 -185 -70 -254 -85 l-65 -14 -70
47 c-90 59 -116 82 -251 217 -125 124 -134 135 -239 272 -42 54 -81 103 -86
110 -6 7 -67 95 -135 195 l-126 183 231 227 c126 126 234 227 238 225 4 -1 8
2 8 7 3 16 87 95 96 90 5 -3 7 0 6 8 -2 7 3 12 9 11 7 -2 12 3 10 10 -1 6 5
11 13 9 8 -2 12 0 7 4 -10 10 63 85 76 77 6 -3 7 -1 4 4 -7 11 242 259 383
384 121 106 198 162 211 153 7 -4 10 -3 6 3 -9 14 70 66 85 57 6 -4 8 -3 5 3
-11 17 169 101 273 128 84 23 110 25 234 22 138 -4 138 -4 163 -33z m-3969
-64 c165 -86 362 -267 569 -523 32 -40 84 -103 117 -142 32 -38 66 -79 75 -90
9 -11 54 -65 100 -120 46 -55 102 -122 125 -150 23 -27 68 -80 101 -119 63
-73 162 -191 223 -266 21 -25 54 -64 75 -87 28 -31 35 -43 25 -49 -7 -5 -16
-9 -20 -9 -3 0 -10 -4 -15 -9 -5 -5 -3 -6 4 -2 26 14 12 -10 -36 -64 -55 -62
-66 -65 -196 -49 -310 39 -680 275 -953 609 -30 36 -59 72 -65 80 -42 53 -135
213 -168 290 -98 227 -125 503 -69 703 6 20 16 37 21 37 6 0 45 -18 87 -40z"/>
<path d="M3559 3303 c-13 -16 -12 -17 4 -4 9 7 17 15 17 17 0 8 -8 3 -21 -13z"/>
</g>
</svg>
